<svg xmlns="http://www.w3.org/2000/svg" width="38" height="38" viewBox="0 0 38 38" fill="none">
        <path d="M11.4016 14.3361L9.40234 18.6299C10.6162 17.8665 11.9253 17.2463 13.3057 16.7931L12.1395 14.3361C11.9967 14.026 11.5444 14.026 11.4016 14.3361Z" fill="#32A0FF"></path>
        <path d="M18.9456 0C13.876 0 9.11578 1.97991 5.54563 5.55807C1.97548 9.13622 0 13.9309 0 18.9881C0 24.0691 1.97548 28.8399 5.54563 32.4419C9.11578 36.0439 13.8998 38 18.9456 38C24.0152 38 28.7754 36.0201 32.3694 32.4419C35.9633 28.8638 37.915 24.0691 37.915 19.0119C37.915 13.9309 35.9395 9.16008 32.3694 5.58192C28.7754 1.97991 23.9914 0 18.9456 0ZM33.2976 25.7389C33.2738 25.7627 33.2262 25.7866 33.1786 25.8104L33.131 25.8343C32.536 26.1205 31.8219 25.882 31.4887 25.3095C29.8465 22.5901 27.2283 20.5148 24.0866 19.4175L25.1577 17.032C26.3239 17.4614 27.4426 18.01 28.466 18.6541L26.4667 14.3365C26.3239 14.0264 25.8717 14.0264 25.7289 14.3365L24.8244 16.3164L24.5864 16.8173L23.4678 19.2028L22.7776 20.6817L22.3729 21.5643C22.3729 21.5643 22.3729 21.5643 22.3491 21.5643L20.6593 25.2141C20.3499 25.882 19.6834 26.3114 18.9456 26.3114C18.2078 26.3114 17.5413 25.882 17.2319 25.2141L14.7804 19.9661L14.709 19.823C15.5659 19.5844 16.4465 19.3936 17.3509 19.2982C17.3509 19.322 17.3747 19.322 17.3747 19.3459C17.4937 19.5844 17.5889 19.7991 17.6603 19.9661C18.0412 20.7771 18.3744 21.4928 18.5886 21.9937C18.7314 22.28 19.136 22.28 19.255 21.9937L20.4927 19.322C20.4927 19.322 20.4927 19.322 20.5165 19.322L20.8259 18.6541C20.2071 18.5825 19.5644 18.5348 18.9218 18.5348C18.422 18.5348 17.8984 18.5587 17.3985 18.6064C17.2795 18.6303 17.1367 18.6303 17.0177 18.6541C16.1133 18.7495 15.2326 18.9404 14.3996 19.2028C14.3282 19.2266 14.2568 19.2505 14.2092 19.2505C10.9009 20.3239 8.09234 22.447 6.37867 25.3095C6.04545 25.882 5.33142 26.0967 4.7364 25.8343L4.6888 25.8104C4.6412 25.7866 4.61739 25.7627 4.56979 25.7389C3.97477 25.4288 3.71296 24.6893 3.99857 24.0691L9.75841 11.7125C10.1154 10.9492 10.9009 10.4482 11.7339 10.4482H11.7815C12.6621 10.4482 13.4714 10.9492 13.8284 11.7602C14.0664 12.285 14.9946 14.2649 15.8991 16.1971C16.8987 16.0301 17.8984 15.9347 18.9456 15.9347C19.9928 15.9347 21.0163 16.0301 21.9921 16.1971L24.039 11.7602C24.4198 10.973 25.2053 10.4482 26.0859 10.4482C26.9665 10.4482 27.752 10.9492 28.1328 11.7602L33.8688 24.0691C34.1544 24.6893 33.9164 25.4049 33.2976 25.7389Z" fill="#32A0FF"></path>
    </svg>