<svg version="1.2" baseProfile="tiny-ps" xmlns="http://www.w3.org/2000/svg" viewBox="0 0 1562 1562" width="1562" height="1562">
	<title>Screenshot 2021-10-31 at 11-svg</title>
	<style>
		tspan { white-space:pre }
		.shp0 { fill: #9f4b2f } 
	</style>
	<g id="#9f4b2fff">
		<path id="Layer" class="shp0" d="M409.45 95.73C579.42 2.39 784.87 -23.94 972.73 24.19C1046.5 40.36 1114.51 73.87 1181.22 108.06C1181.34 112.58 1181.47 117.1 1181.65 121.62C1111.91 125.9 1047.12 155.75 983.45 182.2C950.31 194.77 919.9 221.34 882.49 216.2C830.15 216.51 776.57 210.63 725.47 224.63C657.96 239.62 592.3 265.82 535.5 305.64C527.51 310.23 519.03 317.97 509.24 314C459.44 299.02 408.96 281.67 356.19 284.15C320.94 285.88 281.92 277.27 250.39 297.53C232.18 308.8 214.59 327.14 215.34 349.99C214.47 377.93 213.54 406.11 217.38 433.86C230.51 485.02 253.24 533.21 278.7 579.29C216.57 613.67 167.95 675.73 160.15 747.45C158.54 797.13 157.36 847.11 161.57 896.73C185.05 1012.43 250.08 1121.63 347.76 1189.51C367.4 1203.95 393.1 1211.69 406.48 1233.37C435.28 1278.52 476.23 1314.44 518.59 1346.53C581.21 1393.36 650.21 1431.88 723.49 1459.51C768.58 1475.36 815.34 1489.98 863.72 1488.37C911.41 1487.32 961.09 1494.07 1006.8 1476.66C1076.54 1455.6 1128.01 1400.48 1170.69 1344.11C1210.83 1362.63 1256.04 1358.67 1299.03 1357.93C1264.59 1403.76 1213.61 1432.38 1165.49 1461.61C1013.8 1545.29 833.99 1580.35 662.54 1551.8C533.27 1530.74 408.03 1478.96 304.9 1397.69C132.77 1266.81 20.97 1059.94 5.86 844.27C6.04 821.84 -0.09 799.85 0.72 777.43C6.17 721.87 8.15 665.76 21.84 611.25C68.23 394.03 214.1 201.09 409.45 95.73Z" />
		<path id="Layer" class="shp0" d="M1059.32 262.41C1115.63 238.44 1173.85 215.34 1235.6 211.68C1275.93 212.3 1320.77 229.71 1338.79 268.29C1351.55 296.85 1359.85 329.49 1352.48 360.64C1339.6 447.92 1300.39 532.03 1238.76 595.52C1223.52 573.65 1205.38 551.66 1203.52 523.85C1199.18 458.14 1184.69 390 1145.11 335.99C1123.43 306.01 1091.28 286.38 1058.39 270.83C1058.58 268.73 1059.08 264.52 1059.32 262.41Z" />
		<path id="Layer" class="shp0" d="M760.9 300.94C775.45 296.91 790.75 297.34 805.81 297.65C783.38 319.39 756.25 335.25 732.04 354.82C720.51 363.12 709.98 373.71 696.36 378.42C668.36 379.66 642.35 367.21 617.2 356.68C661.11 329.12 710.98 313.51 760.9 300.94Z" />
		<path id="Layer" class="shp0" d="M932.04 320.76C940.83 316.85 950 308.99 960.1 313.14C1005.37 325.28 1048.55 352.9 1071.96 394.4C1084.35 414.66 1092.15 437.26 1097.73 460.3C1017.02 419.8 930.8 383.25 838.94 382.76C868.12 359.41 899.64 339.28 932.04 320.76Z" />
		<path id="Layer" class="shp0" d="M299.02 377.06C307.32 363.93 319.7 350.11 336.8 351.85C377 346.83 414.72 363.18 450.46 379.35C439.87 402.58 429.03 425.8 421.78 450.39C417.32 469.41 400.41 480.62 387.03 493.19C370.8 507.56 357.43 524.72 343.18 541.01C313.45 492.51 287.12 435.28 299.02 377.06Z" />
		<path id="Layer" class="shp0" d="M1291.16 683.9C1365.61 592.23 1413.49 482.23 1445.27 369.25C1510.49 470.46 1546.85 588.27 1559.92 707.5C1562.15 754.58 1562.52 801.77 1560.23 848.91C1549.7 962.14 1516.44 1073.63 1458.4 1171.68C1426.13 1080.32 1375.03 996.94 1317.05 919.77C1305.97 904.59 1292.71 890.53 1285.53 872.88C1272.58 825.5 1280.63 775.57 1270.6 727.7C1267.25 710.29 1282.24 697.04 1291.16 683.9Z" />
		<path id="Layer" class="shp0" d="M528.87 442.16C537.98 427.85 556.37 431.5 569.88 436.27C587.47 443.02 603.94 452.31 620.61 461.23C595.03 496.66 566.78 530.05 541.76 565.91C509.73 608.65 484.65 655.97 454.42 699.95C439.62 681.98 432.99 658.76 440.73 636.27C461.17 568.33 482.36 497.28 528.87 442.16Z" />
		<path id="Layer" class="shp0" d="M786.05 452.69C798.87 452.38 811.75 451.57 824.57 453.18C905.22 467.43 984.38 494.8 1053.32 539.59C1070.16 551.11 1089.55 563.43 1095.5 584.31C1106.4 621.72 1112.41 661.92 1101.75 700.13C1018.69 618.87 930.49 541.69 830.77 481.24C815.59 472.13 800.66 462.6 786.05 452.69Z" />
		<path id="Layer" class="shp0" d="M680.69 544.85C693.38 533.33 706.21 513.88 726.09 520.57C758.92 533.83 786.85 556.62 815.59 576.87C892.95 634.97 966.91 697.72 1036.28 765.11C997.07 808.65 950.62 844.88 904.54 880.75C850.09 920.57 794.35 959.72 732.84 987.9C667 936.86 614.91 870.9 557.74 810.82C545.41 795.09 523.61 777.93 535.19 755.75C568.39 676.35 621.78 606.98 680.69 544.85Z" />
		<path id="Layer" class="shp0" d="M245.87 795.83C244.01 741.63 278.2 694.12 318.4 661.11C344.73 693.57 370.12 726.83 393.91 761.2C404.5 775.64 390.56 791.43 384.55 804.56C345.22 873.19 331.72 952.22 320.45 1029.4C286.88 997.07 269.41 952.72 254.98 909.36C242.34 872.94 246.43 833.67 245.87 795.83Z" />
		<path id="Layer" class="shp0" d="M1140.4 910.48C1147.15 882.05 1152.85 853.31 1160.04 824.88C1172.92 844.27 1192.56 863.09 1189.46 888.49C1188.53 941.39 1192.93 994.84 1183.08 1047.18C1174.59 1109.8 1166.42 1177.25 1127.15 1229.22C1083.36 1208.28 1037.89 1190.13 997.14 1163.5C1072.83 1098.96 1115.38 1004.87 1140.4 910.48Z" />
		<path id="Layer" class="shp0" d="M419.12 1054.55C414.97 981.4 438.19 908.25 478.08 847.42C532.84 904.28 579.66 968.45 637.89 1022.03C568.82 1050.52 493.26 1058.7 419.12 1054.55Z" />
		<path id="Layer" class="shp0" d="M942.94 985.73C974.65 964.18 1002.34 936.74 1036.9 919.4C1024.7 960.4 999.74 995.95 974.65 1030.02C954.77 1053.99 936 1079.32 912.22 1099.58C902.8 1107.51 888.87 1103.73 879.33 1098.22C858.39 1087.07 839.87 1072.14 822.16 1056.59C863.16 1034.42 905.09 1013.3 942.94 985.73Z" />
		<path id="Layer" class="shp0" d="M1278.09 1012.37C1312.22 1049.59 1331.92 1097.16 1350.32 1143.49C1363.63 1176.13 1366.54 1212.12 1361.84 1246.87C1352.79 1266.69 1332.85 1284.16 1309.93 1282.67C1279.77 1285.4 1250.59 1276.85 1222.22 1267.93C1229.1 1226.86 1247.37 1188.89 1255.3 1148.08C1267.19 1103.54 1266.63 1056.9 1278.09 1012.37Z" />
		<path id="Layer" class="shp0" d="M671.58 1113.45C690.16 1109.12 712.77 1100.63 729.37 1114.57C753.84 1131.6 778.3 1148.63 803.02 1165.36C758.85 1193.54 704.16 1196.51 653.25 1195.52C585.8 1197.57 515.93 1183.88 458.26 1147.52C484.53 1134.95 513.95 1142.01 541.82 1138.66C585.36 1131.85 629.15 1125.65 671.58 1113.45Z" />
		<path id="Layer" class="shp0" d="M867.56 1266.57C888.93 1260.56 911.41 1242.91 933.9 1255.05C979.98 1276.04 1026.68 1295.8 1073.07 1316.24C1044.58 1368.89 985.49 1402.4 925.84 1401.28C891.16 1401.47 855.73 1403.08 822.03 1393.11C743.93 1373.1 669.04 1338.17 605.37 1288.49C692.89 1287.32 783.69 1298.4 867.56 1266.57Z" />
	</g>
</svg>